#!OML:ASF H:\ManfredETheater\Project 1\Capture day 1\Session 1\subject.ASF
:FULLY-SPECIFIED
:DEGREES
139
root 0.211588 18.8743 -17.7056 -169.664 -0.0757251 186.988
lowerback 2.06642 3.8299 4.2716
upperback -5.95028 6.0001 2.26105
thorax -7.2093 2.98368 -0.521552
lowerneck -16.7291 -5.20115 -6.85342
upperneck 15.1927 -5.92567 2.38507
head 7.71517 -3.02621 1.20598
rclavicle -6.06759e-014 -3.37934e-014
rhumerus -53.0287 21.6061 -98.6461
rradius 122.583
rwrist -0.881474
rhand -17.1348 8.9236
rfingers 7.12502
rthumb 9.1053 -20.8599
lclavicle -6.06759e-014 -3.37934e-014
lhumerus -90.9137 -14.2127 95.7283
lradius 116.336
lwrist 12.7008
lhand -23.5886 -12.9568
lfingers 7.12502
lthumb 2.87464 17.0035
rfemur 14.2744 -2.07983 25.5447
rtibia 59.262
rfoot 6.17803 -3.54505
rtoes -33.2535
lfemur -40.2689 -0.975482 -14.1476
ltibia 33.2161
lfoot 7.32742 -10.4233
ltoes -3.42402
140
root 0.226956 18.6421 -18.1909 -170.203 -0.122672 187.013
lowerback 2.38116 3.62629 4.25033
upperback -5.83234 5.73221 2.38072
thorax -7.28769 2.84834 -0.385213
lowerneck -16.564 -5.02505 -6.69224
upperneck 15.0455 -5.70322 2.21772
head 7.61734 -2.92777 1.1572
rclavicle 1.07682e-013 0
rhumerus -53.5518 20.759 -99.0808
rradius 122.336
rwrist -0.357865
rhand -16.7935 8.88526
rfingers 7.12502
rthumb 9.43457 -20.8836
lclavicle 1.07682e-013 0
lhumerus -90.2956 -13.8051 95.8546
lradius 117.012
lwrist 12.7621
lhand -23.5328 -12.5098
lfingers 7.12502
lthumb 2.92853 17.4498
rfemur 13.1286 -2.88072 24.7586
rtibia 63.1828
rfoot 4.86689 -4.51761
rtoes -33.1667
lfemur -38.9937 -0.993842 -14.4793
ltibia 35.0298
lfoot 3.74386 -11.3331
ltoes -0.26878
141
root 0.244013 18.4142 -18.6657 -170.694 -0.235874 186.608
lowerback 2.79136 3.3806 3.78827
upperback -5.73204 5.36335 2.38116
thorax -7.46564 2.67587 -0.127219
lowerneck -16.397 -4.83109 -6.46276
upperneck 14.8668 -5.46668 2.02253
head 7.50627 -2.82045 1.09
rclavicle 1.3828e-014 4.96962e-015
rhumerus -54.0478 19.749 -99.5294
rradius 121.976
rwrist 0.134314
rhand -16.4793 8.88684
rfingers 7.12502
rthumb 9.73777 -20.868
lclavicle 1.3828e-014 4.96962e-015
lhumerus -89.4548 -13.3682 96.026
lradius 117.686
lwrist 12.9718
lhand -23.4617 -12.0101
lfingers 7.12502
lthumb 2.99724 17.9485
rfemur 11.7545 -3.75521 23.5162
rtibia 67.1829
rfoot 3.47491 -5.34378
rtoes -33.0448
lfemur -37.845 -1.30769 -15.2313
ltibia 37.2162
lfoot -0.641543 -11.5759
ltoes 1.76062
142
root 0.265948 18.1922 -19.1251 -171.143 -0.462804 185.727
lowerback 3.34757 3.51773 2.84602
upperback -5.66113 4.76387 2.21514
thorax -7.76278 2.10888 0.282343
lowerneck -16.2769 -4.61351 -6.15103
upperneck 14.665 -5.20514 1.78729
head 7.39241 -2.69879 0.998363
rclavicle 3.2228e-014 9.34288e-015
rhumerus -54.4803 18.5763 -99.9874
rradius 121.468
rwrist 0.577813
rhand -16.156 8.97462
rfingers 7.12502
rthumb 10.0497 -20.7654
lclavicle 3.2228e-014 9.34288e-015
lhumerus -88.3359 -12.8962 96.2225
lradius 118.358
lwrist 13.3256
lhand -23.3485 -11.4464
lfingers 7.12502
lthumb 3.10658 18.5107
rfemur 10.1286 -4.74196 21.7935
rtibia 71.2708
rfoot 2.06835 -5.95848
rtoes -32.7231
lfemur -36.8562 -1.93298 -16.4388
ltibia 39.6488
lfoot -5.23349 -11.0553
ltoes 2.84054
143
root 0.292783 17.9808 -19.5676 -171.503 -0.825397 184.333
lowerback 4.02038 3.08737 1.3539
upperback -5.56014 4.13284 1.94053
thorax -8.1376 1.89831 0.845525
lowerneck -16.3037 -4.37887 -5.76389
upperneck 14.4621 -4.92011 1.52035
head 7.30132 -2.56219 0.883863
rclavicle -1.31167e-014 -3.20043e-014
rhumerus -54.7958 17.218 -100.416
rradius 120.776
rwrist 0.952471
rhand -15.7936 9.16583
rfingers 7.12502
rthumb 10.3993 -20.557
lclavicle -1.31167e-014 -3.20043e-014
lhumerus -86.8365 -12.4183 96.4343
lradius 118.984
lwrist 13.8053
lhand -23.1884 -10.8761
lfingers 7.12502
lthumb 3.26114 19.0787
rfemur 8.19234 -5.87083 19.5334
rtibia 75.4262
rfoot 0.60642 -6.29495
rtoes -32.2846
lfemur -36.041 -2.84002 -18.148
ltibia 42.1833
lfoot -9.57162 -9.93552
ltoes 2.90131
144
root 0.325404 17.7817 -19.9911 -171.747 -1.30344 182.637
lowerback 4.78723 2.62007 -0.440788
upperback -5.43602 3.3935 1.5665
thorax -8.53091 1.65436 1.49979
lowerneck -16.5433 -4.13196 -5.31021
upperneck 14.2589 -4.61539 1.23591
head 7.24578 -2.41131 0.751222
rclavicle -1.89156e-015 -1.39149e-014
rhumerus -54.9514 15.6602 -100.78
rradius 119.847
rwrist 1.23815
rhand -15.3924 9.4363
rfingers 7.12502
rthumb 10.7863 -20.2667
lclavicle -1.89156e-015 -1.39149e-014
lhumerus -84.8588 -11.967 96.6499
lradius 119.505
lwrist 14.3816
lhand -22.9919 -10.3671
lfingers 7.12502
lthumb 3.45092 19.5847
rfemur 5.89908 -7.1087 16.9889
rtibia 79.5916
rfoot -0.903658 -6.35834
rtoes -31.7155
lfemur -35.4166 -3.87609 -20.1227
ltibia 44.706
lfoot -13.3384 -8.57754
ltoes 2.4817
145
root 0.363416 17.5988 -20.3959 -171.898 -1.83718 180.846
lowerback 5.6324 2.1571 -2.30791
upperback -5.26445 2.60516 1.13676
thorax -8.88812 1.39042 2.16132
lowerneck -16.981 -3.88056 -4.81031
upperneck 14.0212 -4.30681 0.968365
head 7.21402 -2.25218 0.614183
rclavicle 1.65783e-014 1.45113e-014
rhumerus -54.9346 13.8815 -101.044
rradius 118.63
rwrist 1.42028
rhand -14.9771 9.70998
rfingers 7.12502
rthumb 11.1868 -19.9718
lclavicle 1.65783e-014 1.45113e-014
lhumerus -82.3264 -11.6169 96.8546
lradius 119.844
lwrist 15.0514
lhand -22.7684 -9.98127
lfingers 7.12502
lthumb 3.66673 19.9669
rfemur 3.26125 -8.39131 14.408
rtibia 83.674
rfoot -2.44607 -6.1817
rtoes -31.0282
lfemur -34.9258 -4.90072 -22.1255
ltibia 47.1171
lfoot -16.2455 -7.40904
ltoes 2.19581
146
root 0.404877 17.4343 -20.7861 -171.973 -2.35943 179.204
lowerback 6.488 1.73059 -3.97957
upperback -5.04457 1.83674 0.711942
thorax -9.16014 1.12092 2.73575
lowerneck -17.545 -3.6283 -4.29277
upperneck 13.7215 -4.00747 0.751992
head 7.1864 -2.09094 0.48888
rclavicle 1.61528e-014 -2.5842e-015
rhumerus -54.8011 11.9008 -101.187
rradius 117.089
rwrist 1.47016
rhand -14.6541 9.8741
rfingers 7.12502
rthumb 11.4984 -19.7905
lclavicle 1.61528e-014 -2.5842e-015
lhumerus -79.2331 -11.4318 97.0275
lradius 119.941
lwrist 15.8116
lhand -22.5447 -9.73205
lfingers 7.12502
lthumb 3.88274 20.2123
rfemur 0.284152 -9.63752 12.102
rtibia 87.5596
rfoot -3.99842 -5.84645
rtoes -30.2858
lfemur -34.4916 -5.74109 -23.9011
ltibia 49.3373
lfoot -18.5157 -6.69993
ltoes 2.5197
147
root 0.4476 17.2889 -21.1659 -172.021 -2.76969 177.906
lowerback 7.30551 1.37699 -5.25769
upperback -4.77707 1.17661 0.342107
thorax -9.32791 0.875599 3.14733
lowerneck -18.1583 -3.39237 -3.81473
upperneck 13.3589 -3.74313 0.635768
head 7.15177 -1.94009 0.398919
rclavicle -1.13587e-014 4.77083e-015
rhumerus -54.62 9.77175 -101.178
rradius 115.225
rwrist 1.31537
rhand -14.5424 9.81191
rfingers 7.12502
rthumb 11.6061 -19.8467
lclavicle -1.13587e-014 4.77083e-015
lhumerus -75.6225 -11.4619 97.1558
lradius 119.761
lwrist 16.6511
lhand -22.369 -9.63685
lfingers 7.12502
lthumb 4.05242 20.3044
rfemur -3.00871 -10.7185 10.3383
rtibia 91.1355
rfoot -5.51742 -5.47469
rtoes -29.5327
lfemur -34 -6.22102 -25.2677
ltibia 51.2923
lfoot -20.601 -6.40964
ltoes 2.8203
148
root 0.489748 17.162 -21.5399 -172.095 -2.99837 177.05
lowerback 8.05298 1.11371 -6.05768
upperback -4.47546 0.681204 0.0543503
thorax -9.40467 0.677606 3.36225
lowerneck -18.7371 -3.18345 -3.42967
upperneck 12.9618 -3.52867 0.671882
head 7.10663 -1.80602 0.369121
rclavicle 1.45486e-014 1.04362e-014
rhumerus -54.4788 7.58347 -100.987
rradius 113.084
rwrist 0.843533
rhand -14.6763 9.49506
rfingers 7.12502
rthumb 11.477 -20.1708
lclavicle 1.45486e-014 1.04362e-014
lhumerus -71.6082 -11.7083 97.2127
lradius 119.325
lwrist 17.5128
lhand -22.272 -9.61588
lfingers 7.12502
lthumb 4.1461 20.3235
rfemur -6.56472 -11.5332 9.27616
rtibia 94.2998
rfoot -6.94303 -5.18648
rtoes -28.8384
lfemur -33.333 -6.2741 -26.138
ltibia 52.9472
lfoot -22.4235 -6.60569
ltoes 4.4864
149
root 0.529027 17.0526 -21.9129 -172.224 -3.00201 176.609
lowerback 8.70475 0.93874 -6.43297
upperback -4.15897 0.359454 -0.148474
thorax -9.41125 0.536407 3.40688
lowerneck -19.1953 -3.00051 -3.13663
upperneck 12.5396 -3.36135 0.843355
head 7.0385 -1.68951 0.394889
rclavicle 7.39852e-015 -3.8763e-015
rhumerus -54.4654 5.51956 -100.639
rradius 110.761
rwrist -0.120225
rhand -15.0684 8.9162
rfingers 7.12502
rthumb 11.0988 -20.7703
lclavicle 7.39852e-015 -3.8763e-015
lhumerus -67.3195 -12.1 97.1681
lradius 118.683
lwrist 18.3138
lhand -22.2377 -9.63539
lfingers 7.12502
lthumb 4.17926 20.3034
rfemur -10.3246 -12.0143 8.90086
rtibia 96.9808
rfoot -8.22368 -5.04703
rtoes -28.278
lfemur -32.4035 -5.94436 -26.5572
ltibia 54.2706
lfoot -24.298 -7.01203
ltoes 6.2696
150
root 0.562994 16.9578 -22.2887 -172.416 -2.7916 176.539
lowerback 9.25369 0.832381 -6.43371
upperback -3.84785 0.18894 -0.269718
thorax -9.37144 0.44656 3.3057
lowerneck -19.5222 -2.84512 -2.94082
upperneck 12.1585 -3.23662 1.1376
head 6.9668 -1.58978 0.472704
rclavicle 5.77718e-015 3.27995e-015
rhumerus -54.6528 3.74254 -100.154
rradius 108.4
rwrist -1.52086
rhand -15.5899 8.19995
rfingers 7.12502
rthumb 10.5957 -21.5129
lclavicle 5.77718e-015 3.27995e-015
lhumerus -62.912 -12.5243 97.0151
lradius 117.933
lwrist 18.9258
lhand -22.2546 -9.66823
lfingers 7.12502
lthumb 4.16294 20.2708
rfemur -14.2018 -12.1472 9.15267
rtibia 99.1275
rfoot -9.32256 -5.08899
rtoes -27.9032
lfemur -31.1679 -5.32797 -26.6062
ltibia 55.2548
lfoot -26.1972 -7.29906
ltoes 7.61335
